<svg width="31" height="31" viewBox="0 0 31 31" fill="none" xmlns="http://www.w3.org/2000/svg">
<path d="M8.4675 4.26963C9.13365 3.60348 10.0371 3.22925 10.9792 3.22925H14.5313V10.3334H10.9792C10.0371 10.3334 9.13365 9.95917 8.4675 9.29303C7.80136 8.62688 7.42712 7.7234 7.42712 6.78133C7.42712 5.83926 7.80136 4.93577 8.4675 4.26963Z" fill="white"/>
<path d="M20.0209 10.3334H16.4688V3.22925H20.0209C20.4873 3.22925 20.9492 3.32113 21.3802 3.49963C21.8112 3.67814 22.2027 3.93979 22.5326 4.26963C22.8624 4.59947 23.1241 4.99105 23.3026 5.42201C23.4811 5.85296 23.573 6.31486 23.573 6.78133C23.573 7.24779 23.4811 7.70969 23.3026 8.14065C23.1241 8.57161 22.8624 8.96319 22.5326 9.29303C22.2027 9.62287 21.8112 9.88451 21.3802 10.063C20.9492 10.2415 20.4873 10.3334 20.0209 10.3334Z" fill="white"/>
<path d="M20.0209 12.2709C19.5544 12.2709 19.0925 12.3628 18.6615 12.5413C18.2306 12.7198 17.839 12.9815 17.5092 13.3113C17.1793 13.6411 16.9177 14.0327 16.7392 14.4637C16.5607 14.8946 16.4688 15.3565 16.4688 15.823C16.4688 16.2895 16.5607 16.7514 16.7392 17.1823C16.9177 17.6133 17.1793 18.0049 17.5092 18.3347C17.839 18.6645 18.2306 18.9262 18.6615 19.1047C19.0925 19.2832 19.5544 19.3751 20.0209 19.3751C20.4873 19.3751 20.9492 19.2832 21.3802 19.1047C21.8112 18.9262 22.2027 18.6645 22.5326 18.3347C22.8624 18.0049 23.1241 17.6133 23.3026 17.1823C23.4811 16.7514 23.573 16.2895 23.573 15.823C23.573 15.3565 23.4811 14.8946 23.3026 14.4637C23.1241 14.0327 22.8624 13.6411 22.5326 13.3113C22.2027 12.9815 21.8112 12.7198 21.3802 12.5413C20.9492 12.3628 20.4873 12.2709 20.0209 12.2709Z" fill="white"/>
<path d="M8.4675 22.353C9.13365 21.6868 10.0371 21.3126 10.9792 21.3126H14.5313V24.8647C14.5313 25.8067 14.157 26.7102 13.4909 27.3764C12.8248 28.0425 11.9213 28.4167 10.9792 28.4167C10.0371 28.4167 9.13365 28.0425 8.4675 27.3764C7.80136 26.7102 7.42712 25.8067 7.42712 24.8647C7.42712 23.9226 7.80136 23.0191 8.4675 22.353Z" fill="white"/>
<path d="M10.9792 12.2709C10.0371 12.2709 9.13365 12.6452 8.4675 13.3113C7.80136 13.9774 7.42712 14.8809 7.42712 15.823C7.42712 16.7651 7.80136 17.6686 8.4675 18.3347C9.13365 19.0008 10.0371 19.3751 10.9792 19.3751H14.5313V12.2709H10.9792Z" fill="white"/>
</svg>
