<svg width="154" height="49" viewBox="0 0 154 49" fill="none" xmlns="http://www.w3.org/2000/svg">
<path d="M48 24.5C48 29.9368 46.1148 35.2055 42.6657 39.4082C39.2166 43.611 34.417 46.4878 29.0846 47.5485C23.7522 48.6091 18.2171 47.7881 13.4222 45.2252C8.6273 42.6622 4.86942 38.5161 2.78883 33.4931C0.708239 28.4701 0.433668 22.8811 2.0119 17.6783C3.59013 12.4756 6.92352 7.98102 11.4441 4.96047C15.9647 1.93991 21.3927 0.580255 26.8034 1.11316C32.2141 1.64606 37.2726 4.03856 41.117 7.88299L38.5485 10.4515C35.2983 7.20129 31.0217 5.1786 26.4474 4.72807C21.873 4.27754 17.284 5.42703 13.4622 7.9807C9.64032 10.5344 6.82218 14.3342 5.48789 18.7327C4.15361 23.1313 4.38574 27.8564 6.14473 32.103C7.90373 36.3496 11.0808 39.8549 15.1345 42.0217C19.1882 44.1884 23.8678 44.8826 28.376 43.9858C32.8841 43.0891 36.9419 40.657 39.8579 37.1039C42.7738 33.5507 44.3676 29.0965 44.3676 24.5H48Z" fill="white"/>
<path d="M16.0159 39.8057C12.4748 37.8429 9.72382 34.7129 8.23174 30.9492C6.73967 27.1854 6.59878 23.0208 7.83309 19.1648C9.0674 15.3088 11.6005 12.0001 15.0009 9.8024C18.4012 7.60473 22.4584 6.65406 26.4811 7.11239C30.5038 7.57072 34.2431 9.40968 37.0619 12.3159C39.8807 15.2222 41.6047 19.0159 41.9399 23.0508C42.2752 27.0856 41.2011 31.1118 38.9006 34.4435C36.6001 37.7751 33.2156 40.206 29.3237 41.322L28.5781 38.7218C31.8684 37.7783 34.7298 35.7231 36.6747 32.9065C38.6196 30.0898 39.5277 26.6859 39.2442 23.2747C38.9608 19.8636 37.5033 16.6563 35.1202 14.1992C32.7371 11.7422 29.5758 10.1875 26.1749 9.79998C22.774 9.4125 19.3439 10.2162 16.4692 12.0742C13.5944 13.9322 11.4528 16.7295 10.4093 19.9894C9.36578 23.2494 9.48489 26.7703 10.7463 29.9523C12.0078 33.1343 14.3335 35.7805 17.3273 37.4399L16.0159 39.8057Z" fill="white"/>
<path d="M24.5 12C27.3919 12 30.1944 13.0027 32.4299 14.8374C34.6654 16.672 36.1956 19.225 36.7598 22.0614C37.324 24.8977 36.8873 27.842 35.524 30.3925C34.1608 32.9429 31.9554 34.9418 29.2835 36.0485C26.6117 37.1552 23.6389 37.3012 20.8714 36.4618C18.104 35.6223 15.7133 33.8492 14.1066 31.4446C12.5 29.0401 11.7767 26.1528 12.0602 23.2748C12.3437 20.3968 13.6163 17.7061 15.6612 15.6612L17.0274 17.0274C15.2986 18.7562 14.2227 21.031 13.983 23.4642C13.7434 25.8973 14.3548 28.3383 15.7131 30.3712C17.0715 32.4041 19.0927 33.9031 21.4323 34.6128C23.772 35.3225 26.2853 35.1991 28.5442 34.2634C30.803 33.3278 32.6675 31.6379 33.82 29.4817C34.9726 27.3254 35.3418 24.8363 34.8648 22.4383C34.3878 20.0404 33.0941 17.882 31.2042 16.3309C29.3142 14.7799 26.9449 13.9321 24.5 13.9321L24.5 12Z" fill="white"/>
<path d="M17.03 20.4442C17.9684 18.716 19.4769 17.3666 21.2986 16.626C23.1203 15.8853 25.1425 15.7993 27.0206 16.3824C28.8986 16.9656 30.5164 18.1819 31.5982 19.8241C32.68 21.4663 33.159 23.4328 32.9534 25.3886C32.7478 27.3443 31.8705 29.1683 30.4709 30.5497C29.0713 31.9311 27.236 32.7845 25.2777 32.9644C23.3195 33.1444 21.3594 32.6397 19.7315 31.5365C18.1035 30.4333 16.9085 28.7998 16.35 26.9142L17.7272 26.5063C18.1913 28.0732 19.1844 29.4307 20.5373 30.3475C21.8901 31.2643 23.5189 31.6836 25.1463 31.5341C26.7737 31.3846 28.2988 30.6754 29.4619 29.5274C30.625 28.3794 31.3541 26.8637 31.5249 25.2384C31.6957 23.6132 31.2977 21.979 30.3987 20.6143C29.4997 19.2495 28.1553 18.2388 26.5946 17.7542C25.0339 17.2695 23.3535 17.3411 21.8396 17.9566C20.3257 18.5721 19.0721 19.6934 18.2923 21.1296L17.03 20.4442Z" fill="white"/>
<path d="M28.2197 27.0327C27.6337 27.8933 26.7675 28.524 25.7687 28.8175C24.7698 29.1111 23.7001 29.0491 22.7417 28.6423C21.7834 28.2356 20.9958 27.5091 20.513 26.5866C20.0303 25.6642 19.8823 24.603 20.0943 23.5837C20.3063 22.5644 20.8652 21.6502 21.6757 20.9968C22.4862 20.3433 23.4982 19.9912 24.5393 20.0002C25.5803 20.0093 26.586 20.3791 27.385 21.0466C28.184 21.714 28.7269 22.6379 28.921 23.6607L28.0934 23.8178C27.9356 22.9865 27.4944 22.2356 26.845 21.6931C26.1955 21.1505 25.3781 20.85 24.5319 20.8426C23.6858 20.8352 22.8632 21.1215 22.2044 21.6526C21.5456 22.1837 21.0914 22.9268 20.9191 23.7552C20.7467 24.5837 20.867 25.4463 21.2594 26.196C21.6517 26.9458 22.2919 27.5363 23.0709 27.8669C23.8498 28.1976 24.7193 28.2479 25.5312 28.0093C26.3431 27.7708 27.0471 27.2581 27.5234 26.5586L28.2197 27.0327Z" fill="white"/>
<path d="M23.7069 22.1292C24.2554 21.9457 24.8506 21.958 25.391 22.1641C25.9314 22.3702 26.3836 22.7573 26.6707 23.2595C26.9577 23.7616 27.0617 24.3477 26.965 24.918C26.8683 25.4882 26.5768 26.0073 26.1403 26.3868C25.7038 26.7662 25.1492 26.9826 24.571 26.999C23.9929 27.0154 23.4269 26.8308 22.9696 26.4767C22.5123 26.1226 22.1919 25.6209 22.063 25.0571C21.9341 24.4932 22.0047 23.9021 22.2628 23.3845L23.1396 23.8216C22.9826 24.1364 22.9397 24.4959 23.018 24.8388C23.0964 25.1817 23.2913 25.4868 23.5694 25.7021C23.8475 25.9174 24.1917 26.0297 24.5433 26.0197C24.8949 26.0097 25.2321 25.8782 25.4976 25.6474C25.763 25.4166 25.9403 25.101 25.9991 24.7542C26.0579 24.4074 25.9946 24.051 25.8201 23.7456C25.6456 23.4402 25.3705 23.2048 25.0419 23.0795C24.7132 22.9541 24.3513 22.9466 24.0177 23.0582L23.7069 22.1292Z" fill="white"/>
<circle cx="24.5" cy="24.5" r="0.5" transform="rotate(-180 24.5 24.5)" fill="white"/>
<path d="M80.38 35H76.96L66.67 19.43V35H63.25V14.12H66.67L76.96 29.66V14.12H80.38V35ZM99.8411 18.47V35H96.4211V33.05C95.8811 33.73 95.1711 34.27 94.2911 34.67C93.4311 35.05 92.5111 35.24 91.5311 35.24C90.2311 35.24 89.0611 34.97 88.0211 34.43C87.0011 33.89 86.1911 33.09 85.5911 32.03C85.0111 30.97 84.7211 29.69 84.7211 28.19V18.47H88.1111V27.68C88.1111 29.16 88.4811 30.3 89.2211 31.1C89.9611 31.88 90.9711 32.27 92.2511 32.27C93.5311 32.27 94.5411 31.88 95.2811 31.1C96.0411 30.3 96.4211 29.16 96.4211 27.68V18.47H99.8411ZM107.774 20.87C108.274 20.03 108.934 19.38 109.754 18.92C110.594 18.44 111.584 18.2 112.724 18.2V21.74H111.854C110.514 21.74 109.494 22.08 108.794 22.76C108.114 23.44 107.774 24.62 107.774 26.3V35H104.354V18.47H107.774V20.87ZM119.857 21.26V30.41C119.857 31.03 119.997 31.48 120.277 31.76C120.577 32.02 121.077 32.15 121.777 32.15H123.877V35H121.177C119.637 35 118.457 34.64 117.637 33.92C116.817 33.2 116.407 32.03 116.407 30.41V21.26H114.457V18.47H116.407V14.36H119.857V18.47H123.877V21.26H119.857ZM125.889 26.66C125.889 25 126.229 23.53 126.909 22.25C127.609 20.97 128.549 19.98 129.729 19.28C130.929 18.56 132.249 18.2 133.689 18.2C134.989 18.2 136.119 18.46 137.079 18.98C138.059 19.48 138.839 20.11 139.419 20.87V18.47H142.869V35H139.419V32.54C138.839 33.32 138.049 33.97 137.049 34.49C136.049 35.01 134.909 35.27 133.629 35.27C132.209 35.27 130.909 34.91 129.729 34.19C128.549 33.45 127.609 32.43 126.909 31.13C126.229 29.81 125.889 28.32 125.889 26.66ZM139.419 26.72C139.419 25.58 139.179 24.59 138.699 23.75C138.239 22.91 137.629 22.27 136.869 21.83C136.109 21.39 135.289 21.17 134.409 21.17C133.529 21.17 132.709 21.39 131.949 21.83C131.189 22.25 130.569 22.88 130.089 23.72C129.629 24.54 129.399 25.52 129.399 26.66C129.399 27.8 129.629 28.8 130.089 29.66C130.569 30.52 131.189 31.18 131.949 31.64C132.729 32.08 133.549 32.3 134.409 32.3C135.289 32.3 136.109 32.08 136.869 31.64C137.629 31.2 138.239 30.56 138.699 29.72C139.179 28.86 139.419 27.86 139.419 26.72ZM149.101 16.28C148.481 16.28 147.961 16.07 147.541 15.65C147.121 15.23 146.911 14.71 146.911 14.09C146.911 13.47 147.121 12.95 147.541 12.53C147.961 12.11 148.481 11.9 149.101 11.9C149.701 11.9 150.211 12.11 150.631 12.53C151.051 12.95 151.261 13.47 151.261 14.09C151.261 14.71 151.051 15.23 150.631 15.65C150.211 16.07 149.701 16.28 149.101 16.28ZM150.781 18.47V35H147.361V18.47H150.781Z" fill="white"/>
</svg>
